<svg xmlns="http://www.w3.org/2000/svg" viewBox="0 0 140.3 146.32"><defs><style>.cls-1{fill:#467c24;}</style></defs><g id="Layer_2" data-name="Layer 2"><g id="Layer_1-2" data-name="Layer 1"><path class="cls-1" d="M79.44,72.49s24.6-6.42,34.91-26.15,26.6-4.1,25.93,5.87-2.66,20.62-60.84,20.28"/><path class="cls-1" d="M75.37,80.87S93.24,99,115.48,98s16.85,21,7.88,25.4-19.18,8-48-42.55"/><path class="cls-1" d="M66.08,81.54s-6.73,24.52,5.2,43.31-9.74,25.08-18.05,19.52S36.71,131.76,66.08,81.54"/><path class="cls-1" d="M60.86,73.83S36.26,80.26,26,100-.64,104.09,0,94.11,2.68,73.5,60.86,73.83"/><path class="cls-1" d="M64.93,65.45S47.06,47.36,24.82,48.3,8,27.32,16.94,22.9s19.18-8,48,42.55"/><path class="cls-1" d="M74.22,64.78S81,40.26,69,21.47,78.76-3.61,87.07,2s16.52,12.61-12.85,62.83"/></g></g></svg>